<svg xmlns="http://www.w3.org/2000/svg" viewBox="0 0 308.21 468.98">
  <path d="M163.3 340.04c-23.48 0-47.17 16.6-47.17 53.65v56.05c8.38 5.47 14.84 11.09 22.49 19.23v-18.98c0-6-.99-10.19-.99-10.19 7.7 5.08 16.71 7.53 25.67 7.53 23.49 0 47.19-16.58 47.19-53.64 0-37.05-23.7-53.65-47.19-53.65zm0 84.82c-15.46 0-24.69-11.65-24.69-31.17 0-19.51 9.23-31.16 24.69-31.16 15.47 0 24.7 11.65 24.7 31.16 0 19.52-9.23 31.17-24.7 31.17zM52.1 340.04c-23.47 0-47.17 16.6-47.17 53.65 0 37.06 23.7 53.64 47.17 53.64 21.87 0 30.15-14.31 49.83-4.95 0 0-2.65-4.94-2.65-15.08v-33.62c0-37.04-23.68-53.64-47.18-53.64zm-24.68 53.65c0-19.51 9.22-31.16 24.69-31.16 15.46 0 24.69 11.65 24.69 31.16v15.8c0 6.11 1.01 9.75 1.01 9.75-9.38 0-13.27 5.61-25.69 5.61-15.48.01-24.7-11.64-24.7-31.16zM274.5 424.86c-15.46 0-24.69-11.65-24.69-31.17v-5.54c20.33-6.67 23.33-26.68 23.33-26.68-13.8 3.92-21.89 3.36-25.24 2.78-3.22-20.3-28.72-21.95-28.72-21.95-.02-.01 8.15 12.38 8.15 51.39 0 37.06 23.7 53.64 47.17 53.64 3.15 0 5.61-.51 5.61-.51 3.92-7.97 6.33-16.15 7.51-25.6-3.67 2.38-8.08 3.64-13.12 3.64z"/>
  <path d="M261.07 346.03v6.75h-1.51v-6.75h-2.2v-1.5h5.92v1.5h-2.21zM270.52 352.78v-4.32l-1.53 3.14h-.98l-1.51-3.14v4.32h-1.52v-8.25h1.46l2.05 4.82 2.03-4.82h1.49v8.25h-1.49z"/>
  <path d="M97.48 37.79S35.49 70.95 35.49 142.2c0 107.58 92.63 133.75 92.63 175.32 0 0 12.71-6.54 12.71-21.02 0-51.92-77.95-83.43-77.95-161.83 0-73.37 34.6-96.88 34.6-96.88z"/>
  <path d="M20.51 168.88c0-42.05 13.55-65.94 13.55-65.94S0 128.48 0 188.2c0 78.68 63.85 131.33 119.54 131.33-47.02-23.26-99.03-84.14-99.03-150.65zM202.97 233.71c0-81.55-75.77-108.23-75.77-168.1C127.19 23.57 171.27 0 171.27 0s-70.62 12.67-70.62 82.89c0 70.71 74.43 111.06 74.43 176.09 0 39.55-23.2 56.36-23.2 56.36s51.09-15.84 51.09-81.63z"/>
  <path d="M100.95 157.05c-7.38 0-13.36 5.98-13.36 13.35 0 7.38 5.98 13.35 13.36 13.35 7.36 0 13.33-5.97 13.33-13.35s-5.96-13.35-13.33-13.35zM119.23 188.69c-7.35 0-13.33 5.98-13.33 13.36 0 7.38 5.98 13.37 13.33 13.37 7.37 0 13.36-5.98 13.36-13.37 0-7.38-5.98-13.36-13.36-13.36zM140.5 243.39c6.73 0 12.17-5.44 12.17-12.14 0-6.72-5.43-12.17-12.17-12.17-6.71 0-12.15 5.45-12.15 12.17 0 6.7 5.44 12.14 12.15 12.14zM163.16 259.93c0-5.42-4.38-9.79-9.8-9.79-5.4 0-9.78 4.37-9.78 9.79 0 5.41 4.38 9.79 9.78 9.79 5.42 0 9.8-4.39 9.8-9.79zM85.12 150.93c5.93 0 10.72-4.79 10.72-10.72 0-5.93-4.79-10.72-10.72-10.72-5.92 0-10.72 4.79-10.72 10.72 0 5.93 4.8 10.72 10.72 10.72zM72.65 109.05c0 5.05 4.08 9.15 9.16 9.15 5.05 0 9.15-4.1 9.15-9.15 0-5.07-4.1-9.17-9.15-9.17-5.08 0-9.16 4.1-9.16 9.17zM91.24 81.35c0-3.39-2.74-6.12-6.12-6.12-3.39 0-6.12 2.73-6.12 6.12 0 3.37 2.73 6.13 6.12 6.13 3.38 0 6.12-2.76 6.12-6.13zM232.62 214.79c0-46.56-14.45-55.79-14.45-79.54 0-23.25 12.12-34.37 12.12-34.37s-33.3 4.77-47.17 32.08c0 0 37.98 40.57 37.98 88.9 0 58.32-42.55 88.54-42.55 88.54s54.07-29.33 54.07-95.61zM248.8 189.79s9.26 31.67-6.09 56.37c27.32-15.21 34.38-37.56 6.09-56.37zM251.43 282.77c-30.03 0-51.2 28.85-51.2 28.85s26.91-15.56 44.57-15.56c16.49 0 22.67 5.52 22.67 5.52s-19.88 1.64-31.71 9.88c0 0 11.95 9.77 27.97 9.77 22.13 0 44.49-16.35 44.49-16.35s-26.77-22.11-56.79-22.11z"/>
</svg>
